# xmcd
#
# Track frame offsets: 
#        150
#        15460
#        30234
#        59710
#        83476
#        95831
#        110033
#        128884
#        142026
#        161201
#        172949
#        192427
#        206692
#        218477
#        231369
#        250446
#        264243
#        275892
#        288504
#        304794
#
# Disc length: 4370 seconds
#
# Revision: 0
# Processed by: cddbd v1.5.2PL0 Copyright (c) Steve Scherf et al.
# Submitted via: ExactAudioCopy v1.0b1
#
DISCID=2d111014
DTITLE=Various Artist - Feel So Good! CD2
DYEAR=2010
DGENRE=Soul
TTITLE0=You're the first, the last, my everything
TTITLE1=Think
TTITLE2=Your song
TTITLE3=Sex Machine
TTITLE4=Everybody needs somebody to love
TTITLE5=Wonderful world
TTITLE6=Lovely Day
TTITLE7=Stand by me
TTITLE8=Mornin'
TTITLE9=Soul man
TTITLE10=Magnificent Santuary Band
TTITLE11=I'll be around
TTITLE12=Last night
TTITLE13=When a loves a woman
TTITLE14=Easy
TTITLE15=Knock on wood
TTITLE16=Get ready
TTITLE17=Fever
TTITLE18=Baby come to me
TTITLE19=What'd I say
EXTD=
EXTT0=
EXTT1=
EXTT2=
EXTT3=
EXTT4=
EXTT5=
EXTT6=
EXTT7=
EXTT8=
EXTT9=
EXTT10=
EXTT11=
EXTT12=
EXTT13=
EXTT14=
EXTT15=
EXTT16=
EXTT17=
EXTT18=
EXTT19=
PLAYORDER=
